<?xml version="1.0" encoding="UTF-8" standalone="no"?>
<svg
   xmlns:dc="http://purl.org/dc/elements/1.1/"
   xmlns:cc="http://creativecommons.org/ns#"
   xmlns:rdf="http://www.w3.org/1999/02/22-rdf-syntax-ns#"
   xmlns:svg="http://www.w3.org/2000/svg"
   xmlns="http://www.w3.org/2000/svg"
   xmlns:sodipodi="http://sodipodi.sourceforge.net/DTD/sodipodi-0.dtd"
   xmlns:inkscape="http://www.inkscape.org/namespaces/inkscape"
   height="300px"
   width="300px"
   version="1.0"
   viewBox="-300 -300 600 600"
   xml:space="preserve"
   id="svg6687"
   inkscape:version="1.0.2 (e86c870879, 2021-01-15)"
   sodipodi:docname="noimage.svg"><metadata
   id="metadata6701"><rdf:RDF><cc:Work
       rdf:about=""><dc:format>image/svg+xml</dc:format><dc:type
         rdf:resource="http://purl.org/dc/dcmitype/StillImage" /><dc:title /></cc:Work></rdf:RDF></metadata><defs
   id="defs6699" /><sodipodi:namedview
   pagecolor="#ffffff"
   bordercolor="#666666"
   borderopacity="1"
   objecttolerance="10"
   gridtolerance="10"
   guidetolerance="10"
   inkscape:pageopacity="0"
   inkscape:pageshadow="2"
   inkscape:window-width="1280"
   inkscape:window-height="983"
   id="namedview6697"
   showgrid="false"
   inkscape:zoom="5.0927492"
   inkscape:cx="39.993135"
   inkscape:cy="121.1193"
   inkscape:window-x="0"
   inkscape:window-y="0"
   inkscape:window-maximized="1"
   inkscape:current-layer="svg6687"
   inkscape:document-rotation="0" /><circle
   stroke="#aaaaaa"
   stroke-width="10"
   fill="#ffffff"
   id="circle6689"
   style="opacity:1;stroke:#ededed;stroke-opacity:1"
   cx="0"
   cy="0"
   r="280" /><g
   aria-label="IMAGEM NÃO"
   transform="scale(0.2)"
   id="text6691"
   style="font-size:360px;line-height:0%;font-family:'Bitstream Vera Sans', 'Liberation Sans', Arial, sans-serif;text-align:center;letter-spacing:1;writing-mode:lr-tb;text-anchor:middle;opacity:1;fill:#e9e9e9;stroke:#e9e9e9;stroke-width:2;stroke-opacity:1;fill-opacity:1"><path
     d="m -1017.2637,0 h -93.164 v -17.929687 l 30.2343,-7.207032 V -231.85547 l -30.2343,-7.20703 v -17.92969 h 93.164 v 17.92969 l -30.2343,7.20703 v 206.718751 l 30.2343,7.207032 z"
     style="font-style:normal;font-variant:normal;font-weight:normal;font-stretch:normal;font-size:360px;font-family:'Droid Sans';-inkscape-font-specification:'Droid Sans, Normal';font-variant-ligatures:normal;font-variant-caps:normal;font-variant-numeric:normal;font-variant-east-asian:normal;fill:#e9e9e9;fill-opacity:1;stroke:#e9e9e9;stroke-opacity:1"
     id="path857" /><path
     d="m -860.69727,0 -77.87109,-225 h -1.40625 q 1.05469,13.00781 1.75781,25.83984 0.70313,11.07422 1.05469,23.37891 0.52734,12.12891 0.52734,22.14844 V 0 h -30.23437 v -256.99219 h 48.51562 l 72.42188,209.531253 h 1.05469 l 72.77343,-209.531253 h 48.51563 V 0 h -32.69531 v -155.91797 q 0,-9.14062 0.35156,-20.91797 0.35156,-11.77734 0.87891,-22.5 0.70312,-12.48047 1.23046,-25.3125 h -1.40625 L -833.80273,0 Z"
     style="font-style:normal;font-variant:normal;font-weight:normal;font-stretch:normal;font-size:360px;font-family:'Droid Sans';-inkscape-font-specification:'Droid Sans, Normal';font-variant-ligatures:normal;font-variant-caps:normal;font-variant-numeric:normal;font-variant-east-asian:normal;fill:#e9e9e9;fill-opacity:1;stroke:#e9e9e9;stroke-opacity:1"
     id="path859" /><path
     d="m -502.1582,0 -28.125,-79.628906 h -95.80078 L -654.56055,0 h -33.04687 l 94.39453,-258.04687 h 29.88281 L -468.75977,0 Z m -38.4961,-108.63281 -26.01562,-74.53125 q -1.05469,-3.16406 -2.63672,-7.73438 -1.40625,-4.57031 -2.98828,-9.84375 -1.58203,-5.27343 -3.16406,-10.89843 -1.58204,-5.80079 -2.98829,-11.25 -1.23046,5.44921 -2.8125,11.25 -1.58203,5.80078 -3.16406,11.25 -1.58203,5.27343 -3.16406,9.84375 -1.40625,4.39453 -2.46094,7.38281 l -25.48828,74.53125 z"
     style="font-style:normal;font-variant:normal;font-weight:normal;font-stretch:normal;font-size:360px;font-family:'Droid Sans';-inkscape-font-specification:'Droid Sans, Normal';font-variant-ligatures:normal;font-variant-caps:normal;font-variant-numeric:normal;font-variant-east-asian:normal;fill:#e9e9e9;fill-opacity:1;stroke:#e9e9e9;stroke-opacity:1"
     id="path861" /><path
     d="m -333.81445,-135.70312 h 85.07812 V -9.6679688 q -9.66797,3.1640626 -19.51172,5.6250001 Q -278.0918,-1.5820312 -288.46289,0 q -10.37109,1.7578125 -21.79688,2.6367188 -11.42578,0.8789062 -24.60937,0.8789062 -27.59766,0 -48.86719,-9.140625 -21.26953,-9.316406 -35.85937,-26.367187 -14.58985,-17.226563 -22.14844,-41.660157 -7.55859,-24.609375 -7.55859,-55.195316 0,-30.23437 8.26171,-54.66796 8.4375,-24.4336 24.4336,-41.48438 15.99609,-17.22656 39.375,-26.36719 23.55469,-9.3164 53.61328,-9.3164 19.51172,0 37.44141,3.86718 17.92968,3.86719 33.39843,11.25 l -12.65625,28.47657 q -6.32812,-2.98828 -13.71093,-5.625 -7.20704,-2.63672 -14.94141,-4.57032 -7.73438,-2.10937 -15.99609,-3.33984 -8.08594,-1.23047 -16.17188,-1.23047 -21.44531,0 -37.96875,7.20703 -16.52344,7.03125 -27.77344,20.39063 -11.07422,13.35937 -16.875,32.51953 -5.80078,19.16016 -5.80078,43.24219 0,22.85156 4.7461,41.835934 4.92187,18.984375 15.46875,32.695312 10.54687,13.710938 27.24609,21.269532 16.69922,7.558593 40.25391,7.558593 7.73437,0 14.0625,-0.351562 6.5039,-0.527344 11.95312,-1.230469 5.44922,-0.703125 10.19531,-1.582031 4.92188,-1.054688 9.49219,-1.933594 V -106.875 h -52.55859 z"
     style="font-style:normal;font-variant:normal;font-weight:normal;font-stretch:normal;font-size:360px;font-family:'Droid Sans';-inkscape-font-specification:'Droid Sans, Normal';font-variant-ligatures:normal;font-variant-caps:normal;font-variant-numeric:normal;font-variant-east-asian:normal;fill:#e9e9e9;fill-opacity:1;stroke:#e9e9e9;stroke-opacity:1"
     id="path863" /><path
     d="M -53.498047,0 H -186.91602 v -256.99219 h 133.417973 v 28.82813 H -154.2207 v 79.45312 h 94.042966 v 28.47656 H -154.2207 v 91.406255 h 100.722653 z"
     style="font-style:normal;font-variant:normal;font-weight:normal;font-stretch:normal;font-size:360px;font-family:'Droid Sans';-inkscape-font-specification:'Droid Sans, Normal';font-variant-ligatures:normal;font-variant-caps:normal;font-variant-numeric:normal;font-variant-east-asian:normal;fill:#e9e9e9;fill-opacity:1;stroke:#e9e9e9;stroke-opacity:1"
     id="path865" /><path
     d="M 110.27539,0 32.404297,-225 h -1.40625 q 1.054687,13.00781 1.757812,25.83984 0.703125,11.07422 1.054688,23.37891 0.527344,12.12891 0.527344,22.14844 V 0 H 4.1035156 V -256.99219 H 52.619141 l 72.421879,209.531253 h 1.05468 l 72.77344,-209.531253 h 48.51563 V 0 h -32.69532 v -155.91797 q 0,-9.14062 0.35157,-20.91797 0.35156,-11.77734 0.8789,-22.5 0.70313,-12.48047 1.23047,-25.3125 h -1.40625 L 137.16992,0 Z"
     style="font-style:normal;font-variant:normal;font-weight:normal;font-stretch:normal;font-size:360px;font-family:'Droid Sans';-inkscape-font-specification:'Droid Sans, Normal';font-variant-ligatures:normal;font-variant-caps:normal;font-variant-numeric:normal;font-variant-east-asian:normal;fill:#e9e9e9;fill-opacity:1;stroke:#e9e9e9;stroke-opacity:1"
     id="path867" /><path
     d="M 605.3418,0 H 567.54883 L 441.16211,-212.69531 h -1.40625 q 1.05469,13.53515 1.75781,26.89453 0.70313,11.42578 1.05469,23.90625 0.52734,12.48047 0.52734,22.5 V 0 h -30.23437 v -256.99219 h 37.4414 l 125.85938,211.640628 h 1.23047 q -0.52735,-13.359375 -1.23047,-26.367188 -0.17578,-5.625 -0.52734,-11.425781 -0.17579,-5.976563 -0.52735,-11.777344 -0.17578,-5.976565 -0.35156,-11.425785 0,-5.44922 0,-10.01953 v -140.625 h 30.58594 z"
     style="font-style:normal;font-variant:normal;font-weight:normal;font-stretch:normal;font-size:360px;font-family:'Droid Sans';-inkscape-font-specification:'Droid Sans, Normal';font-variant-ligatures:normal;font-variant-caps:normal;font-variant-numeric:normal;font-variant-east-asian:normal;fill:#e9e9e9;fill-opacity:1;stroke:#e9e9e9;stroke-opacity:1"
     id="path869" /><path
     d="m 826.77148,0 -28.125,-79.628906 H 702.8457 L 674.36914,0 h -33.04687 l 94.39453,-258.04687 h 29.88281 L 860.16992,0 Z m -38.49609,-108.63281 -26.01562,-74.53125 q -1.05469,-3.16406 -2.63672,-7.73438 -1.40625,-4.57031 -2.98828,-9.84375 -1.58204,-5.27343 -3.16407,-10.89843 -1.58203,-5.80079 -2.98828,-11.25 -1.23047,5.44921 -2.8125,11.25 -1.58203,5.80078 -3.16406,11.25 -1.58203,5.27343 -3.16406,9.84375 -1.40625,4.39453 -2.46094,7.38281 l -25.48828,74.53125 z m -11.25,-169.27735 q -7.03125,0 -14.0625,-2.98828 -6.85547,-3.16406 -13.53516,-6.85547 -6.67968,-3.86718 -12.83203,-6.85546 -6.15234,-3.16407 -11.77734,-3.16407 -7.91016,0 -12.12891,4.7461 -4.21875,4.57031 -6.67968,15.46875 h -18.28125 q 0.8789,-10.54688 3.6914,-19.16016 2.98828,-8.61328 7.5586,-14.58984 4.74609,-6.15235 11.25,-9.31641 6.5039,-3.33984 14.58984,-3.33984 7.38281,0 14.41406,3.16406 7.20703,2.98828 13.88672,6.67969 6.67969,3.6914 12.65625,6.85547 6.15234,2.98828 11.25,2.98828 7.91016,0 11.95313,-4.57032 4.04296,-4.57031 6.67968,-15.46875 h 18.45703 q -0.8789,10.54688 -3.86718,19.16016 -2.8125,8.4375 -7.5586,14.58984 -4.57031,5.97657 -11.07422,9.31641 -6.5039,3.33984 -14.58984,3.33984 z"
     style="font-style:normal;font-variant:normal;font-weight:normal;font-stretch:normal;font-size:360px;font-family:'Droid Sans';-inkscape-font-specification:'Droid Sans, Normal';font-variant-ligatures:normal;font-variant-caps:normal;font-variant-numeric:normal;font-variant-east-asian:normal;fill:#e9e9e9;fill-opacity:1;stroke:#e9e9e9;stroke-opacity:1"
     id="path871" /><path
     d="m 1102.5176,-128.84766 q 0,29.707035 -7.2071,54.140629 -7.0312,24.433594 -21.0937,41.835937 -14.0625,17.402344 -34.9805,26.8945315 -20.7422,9.4921875 -47.98825,9.4921875 -28.65235,0 -49.7461,-9.4921875 -20.91797,-9.4921875 -34.80468,-26.8945315 -13.71094,-17.402343 -20.39063,-41.835937 -6.67969,-24.609375 -6.67969,-54.492189 0,-29.88281 6.67969,-54.14062 6.67969,-24.4336 20.56641,-41.66016 13.88672,-17.22656 34.98047,-26.54297 21.09375,-9.49219 49.74609,-9.49219 27.24609,0 47.81249,9.49219 20.7422,9.31641 34.8047,26.71875 14.0625,17.22656 21.0937,41.66016 7.2071,24.25781 7.2071,54.3164 z m -188.26174,0 q 0,24.08203 4.57031,43.417973 4.57031,19.160156 13.88672,32.695312 9.49219,13.359375 23.90625,20.566406 14.58984,7.03125 34.62891,7.03125 20.03905,0 34.45315,-7.03125 14.5898,-7.207031 23.9062,-20.566406 9.4922,-13.535156 13.8867,-32.695312 4.3946,-19.335943 4.3946,-43.417973 0,-24.25781 -4.3946,-43.41796 -4.3945,-19.16016 -13.7109,-32.34375 -9.3164,-13.35938 -23.7305,-20.39063 -14.414,-7.20703 -34.45309,-7.20703 -20.03906,0 -34.62891,7.20703 -14.58984,7.03125 -24.08203,20.39063 -9.49219,13.18359 -14.0625,32.34375 -4.57031,19.16015 -4.57031,43.41796 z"
     style="font-style:normal;font-variant:normal;font-weight:normal;font-stretch:normal;font-size:360px;font-family:'Droid Sans';-inkscape-font-specification:'Droid Sans, Normal';font-variant-ligatures:normal;font-variant-caps:normal;font-variant-numeric:normal;font-variant-east-asian:normal;fill:#e9e9e9;fill-opacity:1;stroke:#e9e9e9;stroke-opacity:1"
     id="path873" /></g>
<g
   aria-label="DISPONíVEL"
   id="text6691-6"
   style="font-size:72px;line-height:0%;font-family:'Bitstream Vera Sans', 'Liberation Sans', Arial, sans-serif;text-align:center;letter-spacing:0.2;writing-mode:lr-tb;text-anchor:middle;opacity:1;fill:#e9e9e9;stroke:#e9e9e9;stroke-width:0.4;stroke-opacity:1;fill-opacity:1"><path
     d="M -202.92539,30.710403 V 71.52681 h 8.57812 q 10.86329,0 15.89063,-4.921875 5.0625,-4.921875 5.0625,-15.539063 0,-10.546875 -5.0625,-15.433594 -5.02734,-4.921875 -15.89063,-4.921875 z m -7.10156,-5.835937 h 14.58984 q 15.25781,0 22.39453,6.363281 7.13672,6.328125 7.13672,19.828125 0,13.570313 -7.17187,19.933594 -7.17188,6.363281 -22.35938,6.363281 h -14.58984 z"
     style="font-style:normal;font-variant:normal;font-weight:normal;font-stretch:normal;font-size:72px;font-family:'DejaVu Sans';-inkscape-font-specification:'DejaVu Sans, Normal';font-variant-ligatures:normal;font-variant-caps:normal;font-variant-numeric:normal;font-variant-east-asian:normal;fill:#e9e9e9;fill-opacity:1;stroke:#e9e9e9;stroke-opacity:1"
     id="path836" /><path
     d="m -154.38555,24.874466 h 7.10157 v 52.488281 h -7.10157 z"
     style="font-style:normal;font-variant:normal;font-weight:normal;font-stretch:normal;font-size:72px;font-family:'DejaVu Sans';-inkscape-font-specification:'DejaVu Sans, Normal';font-variant-ligatures:normal;font-variant-caps:normal;font-variant-numeric:normal;font-variant-east-asian:normal;fill:#e9e9e9;fill-opacity:1;stroke:#e9e9e9;stroke-opacity:1"
     id="path838" /><path
     d="m -101.48633,26.597122 v 6.925781 q -4.04297,-1.933593 -7.6289,-2.882812 -3.58594,-0.949219 -6.92578,-0.949219 -5.80079,0 -8.96485,2.25 -3.1289,2.25 -3.1289,6.398438 0,3.480468 2.07421,5.273437 2.10938,1.757813 7.94532,2.847656 l 4.28906,0.878907 q 7.94531,1.511718 11.70703,5.34375 3.796876,3.796875 3.796876,10.195312 0,7.628906 -5.132816,11.566406 -5.09765,3.9375 -14.97656,3.9375 -3.72656,0 -7.94531,-0.84375 -4.1836,-0.84375 -8.6836,-2.496093 v -7.3125 q 4.32422,2.425781 8.47266,3.65625 4.14844,1.230468 8.15625,1.230468 6.08203,0 9.38672,-2.390625 3.30469,-2.390625 3.30469,-6.820312 0,-3.867188 -2.39063,-6.046875 -2.35547,-2.179688 -7.76953,-3.269531 l -4.32422,-0.84375 q -7.94531,-1.582032 -11.49609,-4.957032 -3.55078,-3.375 -3.55078,-9.386718 0,-6.960938 4.88672,-10.96875 4.92187,-4.007813 13.53515,-4.007813 3.69141,0 7.52344,0.667969 3.83203,0.667969 7.83984,2.003906 z"
     style="font-style:normal;font-variant:normal;font-weight:normal;font-stretch:normal;font-size:72px;font-family:'DejaVu Sans';-inkscape-font-specification:'DejaVu Sans, Normal';font-variant-ligatures:normal;font-variant-caps:normal;font-variant-numeric:normal;font-variant-east-asian:normal;fill:#e9e9e9;fill-opacity:1;stroke:#e9e9e9;stroke-opacity:1"
     id="path840" /><path
     d="M -79.946486,30.710403 V 50.43306 h 8.929688 q 4.957031,0 7.664062,-2.566407 2.707031,-2.566406 2.707031,-7.3125 0,-4.710937 -2.707031,-7.277343 -2.707031,-2.566407 -7.664062,-2.566407 z m -7.101562,-5.835937 h 16.03125 q 8.824218,0 13.324218,4.007812 4.535157,3.972657 4.535157,11.671875 0,7.769532 -4.535157,11.742188 -4.5,3.972656 -13.324218,3.972656 h -8.929688 v 21.09375 h -7.101562 z"
     style="font-style:normal;font-variant:normal;font-weight:normal;font-stretch:normal;font-size:72px;font-family:'DejaVu Sans';-inkscape-font-specification:'DejaVu Sans, Normal';font-variant-ligatures:normal;font-variant-caps:normal;font-variant-numeric:normal;font-variant-east-asian:normal;fill:#e9e9e9;fill-opacity:1;stroke:#e9e9e9;stroke-opacity:1"
     id="path842" /><path
     d="m -22.125388,29.690872 q -7.734375,0 -12.304687,5.765625 -4.535156,5.765625 -4.535156,15.714844 0,9.914062 4.535156,15.679687 4.570312,5.765625 12.304687,5.765625 7.734375,0 12.2343754,-5.765625 4.5351563,-5.765625 4.5351563,-15.679687 0,-9.949219 -4.5351563,-15.714844 -4.5000004,-5.765625 -12.2343754,-5.765625 z m 0,-5.765625 q 11.039063,0 17.6484379,7.417969 6.609375,7.382812 6.609375,19.828125 0,12.410156 -6.609375,19.828125 -6.6093749,7.382812 -17.6484379,7.382812 -11.074218,0 -17.71875,-7.382812 -6.609375,-7.382813 -6.609375,-19.828125 0,-12.445313 6.609375,-19.828125 6.644532,-7.417969 17.71875,-7.417969 z"
     style="font-style:normal;font-variant:normal;font-weight:normal;font-stretch:normal;font-size:72px;font-family:'DejaVu Sans';-inkscape-font-specification:'DejaVu Sans, Normal';font-variant-ligatures:normal;font-variant-caps:normal;font-variant-numeric:normal;font-variant-east-asian:normal;fill:#e9e9e9;fill-opacity:1;stroke:#e9e9e9;stroke-opacity:1"
     id="path844" /><path
     d="m 13.441797,24.874466 h 9.5625 L 46.277734,68.784622 V 24.874466 h 6.890625 v 52.488281 h -9.5625 L 20.332422,33.452591 v 43.910156 h -6.890625 z"
     style="font-style:normal;font-variant:normal;font-weight:normal;font-stretch:normal;font-size:72px;font-family:'DejaVu Sans';-inkscape-font-specification:'DejaVu Sans, Normal';font-variant-ligatures:normal;font-variant-caps:normal;font-variant-numeric:normal;font-variant-east-asian:normal;fill:#e9e9e9;fill-opacity:1;stroke:#e9e9e9;stroke-opacity:1"
     id="path846" /><path
     d="m 75.341028,19.77681 h 6.996094 L 70.876184,32.99556 h -5.378906 z m -8.121094,18.210937 h 6.46875 v 39.375 h -6.46875 z m 3.234375,-0.949219 z"
     style="font-style:normal;font-variant:normal;font-weight:normal;font-stretch:normal;font-size:72px;font-family:'DejaVu Sans';-inkscape-font-specification:'DejaVu Sans, Normal';font-variant-ligatures:normal;font-variant-caps:normal;font-variant-numeric:normal;font-variant-east-asian:normal;fill:#e9e9e9;fill-opacity:1;stroke:#e9e9e9;stroke-opacity:1"
     id="path848" /><path
     d="M 101.24023,77.362747 81.201166,24.874466 h 7.417969 L 105.24804,69.065872 121.9121,24.874466 h 7.38282 l -20.00391,52.488281 z"
     style="font-style:normal;font-variant:normal;font-weight:normal;font-stretch:normal;font-size:72px;font-family:'DejaVu Sans';-inkscape-font-specification:'DejaVu Sans, Normal';font-variant-ligatures:normal;font-variant-caps:normal;font-variant-numeric:normal;font-variant-east-asian:normal;fill:#e9e9e9;fill-opacity:1;stroke:#e9e9e9;stroke-opacity:1"
     id="path850" /><path
     d="m 137.15899,24.874466 h 33.1875 v 5.976562 h -26.08594 v 15.539063 h 24.9961 v 5.976562 h -24.9961 v 19.019532 h 26.71875 v 5.976562 h -33.82031 z"
     style="font-style:normal;font-variant:normal;font-weight:normal;font-stretch:normal;font-size:72px;font-family:'DejaVu Sans';-inkscape-font-specification:'DejaVu Sans, Normal';font-variant-ligatures:normal;font-variant-caps:normal;font-variant-numeric:normal;font-variant-east-asian:normal;fill:#e9e9e9;fill-opacity:1;stroke:#e9e9e9;stroke-opacity:1"
     id="path852" /><path
     d="m 182.85116,24.874466 h 7.10156 v 46.511719 h 25.5586 v 5.976562 h -32.66016 z"
     style="font-style:normal;font-variant:normal;font-weight:normal;font-stretch:normal;font-size:72px;font-family:'DejaVu Sans';-inkscape-font-specification:'DejaVu Sans, Normal';font-variant-ligatures:normal;font-variant-caps:normal;font-variant-numeric:normal;font-variant-east-asian:normal;fill:#e9e9e9;fill-opacity:1;stroke:#e9e9e9;stroke-opacity:1"
     id="path854" /></g>
</svg>
